<svg width="1920" height="18" viewBox="0 0 1920 18" fill="none" xmlns="http://www.w3.org/2000/svg">
<path d="M378.968 8.142C378.968 8.97267 378.847 9.70533 378.604 10.34C378.361 10.9747 378.03 11.5067 377.61 11.936C377.199 12.356 376.719 12.6733 376.168 12.888C375.617 13.1027 375.034 13.21 374.418 13.21C373.802 13.21 373.219 13.1027 372.668 12.888C372.117 12.6733 371.632 12.356 371.212 11.936C370.801 11.5067 370.475 10.9747 370.232 10.34C369.989 9.70533 369.868 8.97267 369.868 8.142C369.868 7.31133 369.989 6.58333 370.232 5.958C370.475 5.32333 370.801 4.796 371.212 4.376C371.632 3.94667 372.117 3.62467 372.668 3.41C373.219 3.19533 373.802 3.088 374.418 3.088C375.034 3.088 375.617 3.19533 376.168 3.41C376.719 3.62467 377.199 3.94667 377.61 4.376C378.03 4.796 378.361 5.32333 378.604 5.958C378.847 6.58333 378.968 7.31133 378.968 8.142ZM377.96 8.142C377.96 7.48867 377.876 6.90533 377.708 6.392C377.54 5.86933 377.302 5.426 376.994 5.062C376.686 4.698 376.313 4.42267 375.874 4.236C375.445 4.04 374.959 3.942 374.418 3.942C373.877 3.942 373.387 4.04 372.948 4.236C372.519 4.42267 372.15 4.698 371.842 5.062C371.534 5.426 371.296 5.86933 371.128 6.392C370.96 6.90533 370.876 7.48867 370.876 8.142C370.876 8.79533 370.96 9.38333 371.128 9.906C371.296 10.4193 371.534 10.858 371.842 11.222C372.15 11.586 372.519 11.866 372.948 12.062C373.387 12.258 373.877 12.356 374.418 12.356C374.959 12.356 375.445 12.258 375.874 12.062C376.313 11.866 376.686 11.586 376.994 11.222C377.302 10.858 377.54 10.4193 377.708 9.906C377.876 9.38333 377.96 8.79533 377.96 8.142ZM384.602 13.21C383.958 13.21 383.407 13.112 382.95 12.916C382.502 12.72 382.138 12.4493 381.858 12.104C381.578 11.7587 381.372 11.3573 381.242 10.9C381.12 10.4333 381.06 9.934 381.06 9.402V3.298H382.012V9.276C382.012 9.808 382.072 10.27 382.194 10.662C382.324 11.0447 382.502 11.362 382.726 11.614C382.95 11.866 383.22 12.0527 383.538 12.174C383.855 12.2953 384.21 12.356 384.602 12.356C384.994 12.356 385.348 12.2953 385.666 12.174C385.983 12.0527 386.254 11.866 386.478 11.614C386.702 11.362 386.874 11.0447 386.996 10.662C387.126 10.27 387.192 9.808 387.192 9.276V3.298H388.144V9.402C388.144 9.934 388.078 10.4333 387.948 10.9C387.826 11.3573 387.626 11.7587 387.346 12.104C387.066 12.4493 386.697 12.72 386.24 12.916C385.792 13.112 385.246 13.21 384.602 13.21ZM397.085 6.21C397.085 6.938 396.894 7.512 396.511 7.932C396.129 8.352 395.625 8.65533 394.999 8.842C395.149 9.02867 395.34 9.28067 395.573 9.598C395.816 9.91533 396.063 10.2653 396.315 10.648C396.567 11.0213 396.815 11.4133 397.057 11.824C397.3 12.2347 397.505 12.6267 397.673 13H396.651C396.455 12.6267 396.241 12.2533 396.007 11.88C395.783 11.5067 395.55 11.1473 395.307 10.802C395.074 10.4473 394.845 10.1207 394.621 9.822C394.397 9.52333 394.201 9.262 394.033 9.038C393.735 9.066 393.436 9.08 393.137 9.08H391.569V13H390.617V3.48C390.953 3.38667 391.345 3.32133 391.793 3.284C392.251 3.23733 392.671 3.214 393.053 3.214C394.388 3.214 395.391 3.466 396.063 3.97C396.745 4.474 397.085 5.22067 397.085 6.21ZM393.165 4.04C392.811 4.04 392.498 4.054 392.227 4.082C391.966 4.10067 391.747 4.11933 391.569 4.138V8.268H392.885C393.324 8.268 393.739 8.24933 394.131 8.212C394.523 8.16533 394.864 8.072 395.153 7.932C395.443 7.78267 395.671 7.57267 395.839 7.302C396.007 7.03133 396.091 6.66267 396.091 6.196C396.091 5.76667 396.007 5.412 395.839 5.132C395.671 4.852 395.452 4.63267 395.181 4.474C394.911 4.306 394.598 4.194 394.243 4.138C393.898 4.07267 393.539 4.04 393.165 4.04ZM404.543 12.384C405.299 12.384 405.887 12.2487 406.307 11.978C406.727 11.698 406.937 11.25 406.937 10.634C406.937 10.2793 406.867 9.98533 406.727 9.752C406.597 9.50933 406.419 9.30867 406.195 9.15C405.971 8.982 405.715 8.842 405.425 8.73C405.136 8.60867 404.833 8.48267 404.515 8.352C404.114 8.19333 403.755 8.03 403.437 7.862C403.12 7.694 402.849 7.50733 402.625 7.302C402.401 7.08733 402.229 6.84467 402.107 6.574C401.995 6.30333 401.939 5.986 401.939 5.622C401.939 4.79133 402.215 4.16133 402.765 3.732C403.316 3.30267 404.081 3.088 405.061 3.088C405.323 3.088 405.579 3.10667 405.831 3.144C406.083 3.18133 406.317 3.23267 406.531 3.298C406.755 3.354 406.956 3.41933 407.133 3.494C407.32 3.56867 407.474 3.648 407.595 3.732L407.259 4.53C406.989 4.34333 406.657 4.194 406.265 4.082C405.883 3.97 405.467 3.914 405.019 3.914C404.711 3.914 404.427 3.94667 404.165 4.012C403.913 4.068 403.694 4.166 403.507 4.306C403.321 4.43667 403.171 4.60467 403.059 4.81C402.957 5.01533 402.905 5.26267 402.905 5.552C402.905 5.85067 402.961 6.10267 403.073 6.308C403.185 6.51333 403.339 6.69067 403.535 6.84C403.741 6.98933 403.979 7.12467 404.249 7.246C404.52 7.36733 404.814 7.49333 405.131 7.624C405.514 7.78267 405.873 7.94133 406.209 8.1C406.555 8.25867 406.853 8.44533 407.105 8.66C407.357 8.87467 407.558 9.136 407.707 9.444C407.857 9.752 407.931 10.13 407.931 10.578C407.931 11.4553 407.623 12.1133 407.007 12.552C406.401 12.9907 405.575 13.21 404.529 13.21C404.156 13.21 403.815 13.1867 403.507 13.14C403.199 13.0933 402.924 13.0373 402.681 12.972C402.439 12.8973 402.233 12.8227 402.065 12.748C401.897 12.6733 401.767 12.608 401.673 12.552L401.981 11.726C402.075 11.782 402.201 11.8473 402.359 11.922C402.518 11.9967 402.705 12.0713 402.919 12.146C403.134 12.2113 403.377 12.2673 403.647 12.314C403.918 12.3607 404.217 12.384 404.543 12.384ZM409.69 13V3.298H415.29V4.124H410.642V7.498H414.786V8.31H410.642V12.174H415.654V13H409.69ZM423.923 6.21C423.923 6.938 423.732 7.512 423.349 7.932C422.967 8.352 422.463 8.65533 421.837 8.842C421.987 9.02867 422.178 9.28067 422.411 9.598C422.654 9.91533 422.901 10.2653 423.153 10.648C423.405 11.0213 423.653 11.4133 423.895 11.824C424.138 12.2347 424.343 12.6267 424.511 13H423.489C423.293 12.6267 423.079 12.2533 422.845 11.88C422.621 11.5067 422.388 11.1473 422.145 10.802C421.912 10.4473 421.683 10.1207 421.459 9.822C421.235 9.52333 421.039 9.262 420.871 9.038C420.573 9.066 420.274 9.08 419.975 9.08H418.407V13H417.455V3.48C417.791 3.38667 418.183 3.32133 418.631 3.284C419.089 3.23733 419.509 3.214 419.891 3.214C421.226 3.214 422.229 3.466 422.901 3.97C423.583 4.474 423.923 5.22067 423.923 6.21ZM420.003 4.04C419.649 4.04 419.336 4.054 419.065 4.082C418.804 4.10067 418.585 4.11933 418.407 4.138V8.268H419.723C420.162 8.268 420.577 8.24933 420.969 8.212C421.361 8.16533 421.702 8.072 421.991 7.932C422.281 7.78267 422.509 7.57267 422.677 7.302C422.845 7.03133 422.929 6.66267 422.929 6.196C422.929 5.76667 422.845 5.412 422.677 5.132C422.509 4.852 422.29 4.63267 422.019 4.474C421.749 4.306 421.436 4.194 421.081 4.138C420.736 4.07267 420.377 4.04 420.003 4.04ZM426.054 3.298C426.334 4.12867 426.604 4.91733 426.866 5.664C427.127 6.40133 427.384 7.12 427.636 7.82C427.888 8.51067 428.144 9.192 428.406 9.864C428.667 10.5267 428.947 11.1987 429.246 11.88C429.535 11.208 429.81 10.5407 430.072 9.878C430.342 9.206 430.604 8.52467 430.856 7.834C431.117 7.134 431.374 6.41067 431.626 5.664C431.887 4.91733 432.158 4.12867 432.438 3.298H433.446C433.016 4.52067 432.629 5.594 432.284 6.518C431.948 7.442 431.63 8.27733 431.332 9.024C431.042 9.77067 430.762 10.4613 430.492 11.096C430.23 11.7213 429.955 12.356 429.666 13H428.784C428.494 12.356 428.214 11.7213 427.944 11.096C427.673 10.4613 427.388 9.77067 427.09 9.024C426.8 8.27733 426.483 7.442 426.138 6.518C425.802 5.594 425.419 4.52067 424.99 3.298H426.054ZM434.846 3.298H435.798V13H434.846V3.298ZM442.351 13.21C441.725 13.21 441.142 13.098 440.601 12.874C440.069 12.65 439.602 12.3233 439.201 11.894C438.809 11.4647 438.496 10.9373 438.263 10.312C438.039 9.67733 437.927 8.954 437.927 8.142C437.927 7.33 438.048 6.61133 438.291 5.986C438.543 5.35133 438.874 4.81933 439.285 4.39C439.695 3.96067 440.171 3.63867 440.713 3.424C441.254 3.2 441.819 3.088 442.407 3.088C442.771 3.088 443.102 3.11133 443.401 3.158C443.699 3.20467 443.961 3.26533 444.185 3.34C444.409 3.40533 444.6 3.47533 444.759 3.55C444.917 3.61533 445.039 3.676 445.123 3.732L444.815 4.558C444.581 4.418 444.283 4.28267 443.919 4.152C443.564 4.012 443.121 3.942 442.589 3.942C441.982 3.942 441.45 4.04467 440.993 4.25C440.545 4.45533 440.167 4.74467 439.859 5.118C439.551 5.49133 439.317 5.93467 439.159 6.448C439.009 6.96133 438.935 7.53067 438.935 8.156C438.935 8.8 439.009 9.38333 439.159 9.906C439.317 10.4193 439.546 10.858 439.845 11.222C440.143 11.586 440.507 11.866 440.937 12.062C441.375 12.258 441.875 12.356 442.435 12.356C443.051 12.356 443.564 12.3 443.975 12.188C444.395 12.0667 444.712 11.9453 444.927 11.824L445.193 12.636C445.127 12.6827 445.015 12.7387 444.857 12.804C444.698 12.86 444.497 12.9207 444.255 12.986C444.012 13.0513 443.732 13.1027 443.415 13.14C443.097 13.1867 442.743 13.21 442.351 13.21ZM446.85 13V3.298H452.45V4.124H447.802V7.498H451.946V8.31H447.802V12.174H452.814V13H446.85ZM456.701 12.384C457.457 12.384 458.045 12.2487 458.465 11.978C458.885 11.698 459.095 11.25 459.095 10.634C459.095 10.2793 459.025 9.98533 458.885 9.752C458.755 9.50933 458.577 9.30867 458.353 9.15C458.129 8.982 457.873 8.842 457.583 8.73C457.294 8.60867 456.991 8.48267 456.673 8.352C456.272 8.19333 455.913 8.03 455.595 7.862C455.278 7.694 455.007 7.50733 454.783 7.302C454.559 7.08733 454.387 6.84467 454.265 6.574C454.153 6.30333 454.097 5.986 454.097 5.622C454.097 4.79133 454.373 4.16133 454.923 3.732C455.474 3.30267 456.239 3.088 457.219 3.088C457.481 3.088 457.737 3.10667 457.989 3.144C458.241 3.18133 458.475 3.23267 458.689 3.298C458.913 3.354 459.114 3.41933 459.291 3.494C459.478 3.56867 459.632 3.648 459.753 3.732L459.417 4.53C459.147 4.34333 458.815 4.194 458.423 4.082C458.041 3.97 457.625 3.914 457.177 3.914C456.869 3.914 456.585 3.94667 456.323 4.012C456.071 4.068 455.852 4.166 455.665 4.306C455.479 4.43667 455.329 4.60467 455.217 4.81C455.115 5.01533 455.063 5.26267 455.063 5.552C455.063 5.85067 455.119 6.10267 455.231 6.308C455.343 6.51333 455.497 6.69067 455.693 6.84C455.899 6.98933 456.137 7.12467 456.407 7.246C456.678 7.36733 456.972 7.49333 457.289 7.624C457.672 7.78267 458.031 7.94133 458.367 8.1C458.713 8.25867 459.011 8.44533 459.263 8.66C459.515 8.87467 459.716 9.136 459.865 9.444C460.015 9.752 460.089 10.13 460.089 10.578C460.089 11.4553 459.781 12.1133 459.165 12.552C458.559 12.9907 457.733 13.21 456.687 13.21C456.314 13.21 455.973 13.1867 455.665 13.14C455.357 13.0933 455.082 13.0373 454.839 12.972C454.597 12.8973 454.391 12.8227 454.223 12.748C454.055 12.6733 453.925 12.608 453.831 12.552L454.139 11.726C454.233 11.782 454.359 11.8473 454.517 11.922C454.676 11.9967 454.863 12.0713 455.077 12.146C455.292 12.2113 455.535 12.2673 455.805 12.314C456.076 12.3607 456.375 12.384 456.701 12.384Z" fill="#C2C2C2"/>
<rect y="9" width="350" height="0.5" fill="#C2C2C2"/>
<rect x="500" y="9" width="1420" height="0.5" fill="#C2C2C2"/>
</svg>
